<svg version="1.1" id="Capa_1" xmlns="http://www.w3.org/2000/svg" x="0" y="0" viewBox="0 0 474.172 474.172" xml:space="preserve"><path d="M0 91.963V382.21h474.172V91.963H0zm122.701 193.533l-10.909-78.189 26.475 16.631-44.561-35.262h42.829l4.333 45.991c.545 5.462.984 10.827 1.398 16.347 2.227-5.284 4.82-11.063 7.82-17.436l21.216-44.902h28.166l-49.95 96.819-26.817.001zm70.783 0l18.395-96.819h25.207l-18.371 96.819h-25.231zm67.825 1.374c-11.502 0-21.898-2.642-27.8-7.072l-1.731-1.317 8.519-21.012 2.853 1.707c5.723 3.422 13.03 5.422 20.053 5.422 5.365 0 11.665-2.081 11.665-7.885 0-3.032-1.764-5.698-10.779-10.356-9.559-5.162-20.476-12.851-20.476-26.71 0-19.094 15.965-32.441 38.814-32.441 9.348 0 16.834 1.634 22.849 4.95l2.13 1.171-8.055 21.581-2.878-1.577c-1.122-.626-7.21-3.707-15.103-3.707-8.112 0-11.559 3.528-11.559 6.787 0 3.495 4.463 6.267 11.843 10.388 13.128 6.893 19.533 15.591 19.533 26.556.001 20.046-16.012 33.515-39.878 33.515zm98.763-1.374l-1.886-23.646h-21.841l-10.835 23.646h-27.019l47.129-96.819h29.295l11.347 96.819h-26.19z" fill="#d7dae0"/><path d="M354.885 218.451c-1.008 2.593-2.04 5.056-3.056 7.234l-7.202 15.647h12.258l-1.512-16.558c-.122-1.868-.301-4.022-.488-6.323z" fill="#d7dae0"/></svg>